<svg id="Layer_1" data-name="Layer 1" xmlns="http://www.w3.org/2000/svg" viewBox="0 0 1276.55 1276.55"><defs><style>.cls-1{fill:#de73a0;}.cls-2{fill:#e1624b;}.cls-3{fill:#e8573e;}.cls-4{fill:#ed6d55;}.cls-5{fill:#ed6b54;}.cls-6{fill:#e5b953;}.cls-7{fill:#e8583f;}.cls-8{fill:#d24d39;}.cls-9{fill:#fece5b;}.cls-10{fill:#d8d8e2;}.cls-11{fill:#f0f0f3;}.cls-12{fill:#f1f1f4;}.cls-13{fill:#f0f1f4;}.cls-14{fill:#f0f1f5;}.cls-15{fill:#c4c3d1;}.cls-16{fill:#3eadda;}.cls-17{fill:#51bfe8;}</style></defs><circle class="cls-1" cx="638.28" cy="638.28" r="637.28"/><path class="cls-2" d="M702.58,298c29.68,4.67,58.79,11.62,87,22q114.33,41.94,191.58,136.2,82.11,100.36,97.16,229.47c1.16,9.83,2.06,19.69,3.08,29.54V759.7c-1.42,5.83-.69,11.82-.93,17.7-1,24.57-6,48.46-12,72.11A436.06,436.06,0,0,1,1018.05,969a444.71,444.71,0,0,1-260.46,197.25,454.86,454.86,0,0,1-72.85,13.85c-8.94,1-18,1.89-27,1.45-3.84.11-6.43-1.41-6.43-5.55,0-22.76-.86-45.53.43-68.28,2.07-3.94,6.11-3.69,9.5-3.82,29.25-1.11,57.68-6.93,85.53-15.45A355.33,355.33,0,0,0,814,1060.18c22.57-12.4,43.16-27.51,63.2-43.51,3.85-3.07,7.32-6.44,9.31-11.07,1.47-3.57,5-5.16,7.55-7.63,34.89-33.15,62.8-71.37,82.49-115.34a349.91,349.91,0,0,0,28.83-106.94,397.94,397.94,0,0,0,1.72-57.42,328.16,328.16,0,0,0-8.5-60.62A351,351,0,0,0,909.8,492.41c-5.22-5.45-11.41-10-15.56-16.52-5.14-8.8-13.09-15-20.82-21.06-12.95-10.08-25.84-20.24-39.89-28.94a374.36,374.36,0,0,0-119.47-48.46c-18.41-4-37.08-6-55.82-7.45-2.16-.17-4.45-.1-5.42-2.71-.78-2.66-.59-5.39-.6-8.09q0-28,0-55.9c0-2.7-.26-5.45.94-8,1-1.58,2.58-1.89,4.19-2a166.18,166.18,0,0,1,43.76,3.37A8.66,8.66,0,0,1,702.58,298Z"/><path class="cls-3" d="M661.54,94.85c9.84,2.11,19.82,3.65,29.07,8,33.5,15.85,53,42.21,56.13,79.06,3,35.31-11.17,63.73-39.53,85a26.7,26.7,0,0,1-3.27,1.84c-3.85-1.13-3-4.37-3-7.06.25-11.54.64-23.08-.42-34.61,2.26-6.48,6.7-11.87,8.72-18.57,7-23.08,2.29-43.73-14.17-60.76-15.61-16.15-35.49-21.48-57.31-15.93-27.12,6.9-44.93,32.05-44.41,56.79.24,11.38,2.68,21.81,8.17,31.65,1.05,1.88,2.36,3.66,2.87,5.83.47,12.81.22,25.63,0,38.44,0,1.76.15,4.24-2.83,4.33-29.16-17.19-47.44-55.67-42.78-90,6-44.48,37.41-76.33,81.81-83.11a13.62,13.62,0,0,0,2.46-.87Z"/><path class="cls-4" d="M659.69,1180.3a2.89,2.89,0,0,1-.36.67L616,1181c-12.5-1.76-25.12-2.2-37.64-3.9-51.51-7-100.44-22.21-146.24-46.75q-143.88-77.08-205.65-228.55A423.09,423.09,0,0,1,196.05,767c-6.53-108.35,21.48-207,86.23-294,68.57-92.21,160-149.44,272.82-171.72,10.06-2,20.14-4.21,30.49-4.23,2.83,2.37,6.08,1.82,9.23,1.12a59.57,59.57,0,0,0,13.72-4.72c13.59-2.79,27.32-1.09,41-1.25a4.31,4.31,0,0,1,4.41,2.55q0,36.92,0,73.83a3.14,3.14,0,0,1-1.39,1c-7.38,1-14.79.42-22.19.42-29.64,0-58.57,4.65-87.22,12.13a363.21,363.21,0,0,0-73.71,28.39,355.53,355.53,0,0,0-74.71,51.7A381.72,381.72,0,0,0,348,512a358.6,358.6,0,0,0-46,77.19A366.39,366.39,0,0,0,273.71,693.6a340.5,340.5,0,0,0-2.31,59c2.26,41.07,10.2,80.89,25.37,119.35a370.71,370.71,0,0,0,57.92,98.82c29.36,36,64.61,65,105.08,87.81a363.64,363.64,0,0,0,152,45.33c11.57.81,23.1.62,34.65.89,2,0,4-.17,5.85.8l.61.62c0,22.22.17,44.45-.14,66.67C652.66,1178.34,653.88,1181.11,659.69,1180.3Z"/><path class="cls-5" d="M607.29,294.76c-5.88,2.87-11.75,5.81-18.58,5.37a3,3,0,0,1-3.12-3.09c4.86.62,9.41-2.12,14.33-1.29a2.41,2.41,0,0,0,2.93-2.47q.12-11.36,0-22.7c0-.58-.8-1.16-1.22-1.73.43-.74,1.23-1.48,1.24-2.23.08-13.77.07-27.55.09-41.32a15.18,15.18,0,0,1,9.17-2.79q40.59-.21,81.19,0c3.33,0,6.52.56,8.4,3.86,1.8,11.42,1.29,22.87.53,34.33-.19,2.87-.1,5.64,1.72,8.06-1.39,1.39-1.52,3.12-1.5,5,.09,8.08.1,16.18.14,24.26a5.52,5.52,0,0,1-1-.09c-2.68-4.73-1.34-9.89-1.52-14.87-.26-7-.35-7.25-7.43-7.25q-39.48,0-79,0c-7.72,0-7.94.31-8,7.85C605.65,287.43,605.63,291.21,607.29,294.76Z"/><path class="cls-6" d="M894.84,475.11c19.49,19.06,37.55,39.32,52.89,61.94a358.75,358.75,0,0,1,36,67.75,350.85,350.85,0,0,1,21.33,78.65,360.77,360.77,0,0,1,2.85,79.92,350.18,350.18,0,0,1-18.72,91.36,354.08,354.08,0,0,1-63.31,111.39c-12,14.28-25.16,27.33-38.66,40.1-2.61,4-6.18,7.06-9.82,10q-77,61.39-174.32,75.94c-13.23,2-26.59,2.38-39.88,3.51-3.36.29-6.87.66-10.17-.8a3.37,3.37,0,0,1-1.12-1.44,47.72,47.72,0,0,1,0-16.77c1.1-2.21,3.41-2.48,5.38-3.23a21,21,0,0,0,7.75-4.78c7.11-7.19,5.41-18-3.57-22.69-3.22-1.69-6.87-2.14-10.16-3.63-5.05-2.29-7.08-5.45-6-9.55,1.25-4.73,5.06-5,9-5a17.07,17.07,0,0,1,8.78,2.32c2.61,1.49,4.87,1.32,6.34-1.56,1.72-3.37-.92-4.5-3.17-5.63-2.92-1.48-6.12-2.1-9.27-2.88-1.87-.47-4-.43-5.1-2.56a53.24,53.24,0,0,1,0-18.84c1.25-2.32,3.52-2.3,5.67-2.34a266.09,266.09,0,0,0,33.94-3.12,252.15,252.15,0,0,0,77.13-24.53,264.72,264.72,0,0,0,47.68-30.87c6.32-5.12,12.05-10.92,17.89-16.57a11.32,11.32,0,0,1,1.37-1,268.45,268.45,0,0,0,37.51-47.62c15.11-24.39,25.3-50.77,31.72-78.68,6-26.15,7.1-52.59,5-79.28-2.72-35.17-12.71-68.18-29.18-99.25A260.6,260.6,0,0,0,844.61,564a256.38,256.38,0,0,0-161.52-83.84c-7.66-.91-15.42-1.85-23.23-1.49-2.48.12-5.13.33-7.13-1.77-1.38-1.84-1.48-4-1.51-6.14-.08-7.85-.13-15.71,0-23.56,0-2.39-.34-5.18,2.77-6.31,3.94.47,5.36,4,7.62,6.42s3.82,5.29,6.42,7.31a6.31,6.31,0,0,0,6.14,1.14c2.45-.87,2-3.19,2-5.1.06-13.93,0-27.86,0-41.79,0-2.87-.63-4.93-4.14-5s-4.78,1.75-4.74,5c.09,8-.18,15.92.17,23.87.06,1.41.61,3.25-.86,4-1.71.87-3.12-.58-4.09-1.81-4-5.08-8.88-9.57-11.06-15.94-.47-12.47-1-24.94.23-37.39a3.68,3.68,0,0,1,1.09-1.52c6-2,12.22-1.21,18.26-.85a375.63,375.63,0,0,1,61.1,8.61,357.32,357.32,0,0,1,56.25,17.83,340.05,340.05,0,0,1,76.3,43.07c10.11,7.63,20.05,15.39,28.79,24.6A6.58,6.58,0,0,1,894.84,475.11Z"/><path class="cls-7" d="M607.29,294.76c-2.69.2-3.35-1.27-3.29-3.68.11-4.32.22-8.66,0-13-.15-2.56.77-3.64,3.16-3.79.9-.06,1.79-.2,2.69-.2,29.18,0,58.36,0,87.55-.06,3.31,0,4.43,1.09,4.33,4.37-.2,6.49-.09,13-.1,19.48a240,240,0,0,0-47.66-3.16c-1.94-1.23-4.11-1.14-6.27-1.09C634.2,293.94,620.7,292.82,607.29,294.76Z"/><path class="cls-8" d="M652.85,1094.43c30.72-.67,61.07-4.11,90.81-12.06a355.72,355.72,0,0,0,128.89-64.24c5-3.89,9.77-7.93,14.66-11.91.34,3.76-2.62,5.84-4.8,7.73A400.48,400.48,0,0,1,836,1049a354.65,354.65,0,0,1-84.81,39.68,366.7,366.7,0,0,1-64.59,14.42c-11.23,1.41-22.54,1.73-33.76,3.12h0C650.6,1102.3,650.41,1098.37,652.85,1094.43Z"/><path class="cls-8" d="M894.84,475.11c-19.93-17.53-40.75-33.83-63.88-47A358.82,358.82,0,0,0,734.73,390a371.13,371.13,0,0,0-80.85-9.72c-4-3.56-3-7.55-1-11.62.35,0,.69,0,1-.07a369.25,369.25,0,0,1,92,15.62c21.6,6.43,42.21,15.26,62.2,25.44a313.54,313.54,0,0,1,39.13,23.69c13.3,9.45,26.35,19.21,38.3,30.3C889.09,466.9,893.83,469.63,894.84,475.11Z"/><path class="cls-2" d="M652.88,368.64c.36,3.87-1,7.89,1,11.62l-1,.36c-1.65,1.44-3.68,1.34-5.66,1.35-45.22.31-88.63,9.65-130.33,26.87a349.29,349.29,0,0,0-95.1,58.77,354,354,0,0,0-90.52,119.21C319,613,310.46,640.36,304.63,668.71c-6.14,29.85-7.5,60-6,90.2a337.52,337.52,0,0,0,21.78,103.15,351.43,351.43,0,0,0,98,141.89,343.33,343.33,0,0,0,83,54.78c34,15.89,69.5,26.53,106.84,31,13.46,1.61,27,2.42,40.47,3.14a7.18,7.18,0,0,1,4.11,1.14l0,.4q0,5.91,0,11.8c-10.31,0-20.64.54-30.91-.09-24.92-1.55-49.66-4.5-73.89-11a414.29,414.29,0,0,1-40.09-12.5,359.21,359.21,0,0,1-92.2-51.21c-15.29-11.81-30.18-24.07-43.33-38.23-19.89-21.41-37.66-44.43-52.51-69.77a377.52,377.52,0,0,1-27.77-59,318.51,318.51,0,0,1-13.91-48.68,472.69,472.69,0,0,1-7.56-55.45,315.91,315.91,0,0,1-.62-41.14,380.24,380.24,0,0,1,14.56-85.92,364.22,364.22,0,0,1,32.6-77.51,370.11,370.11,0,0,1,24.23-37.07,365.46,365.46,0,0,1,45-51,381.55,381.55,0,0,1,44.58-35.82,358.11,358.11,0,0,1,86.05-43.34,374.08,374.08,0,0,1,70.52-16.82C609.36,368.53,631.09,368.58,652.88,368.64Z"/><path class="cls-9" d="M652.89,1094a333.47,333.47,0,0,1-68.77-6.62c-57.38-11.28-109.13-35.16-154.53-72-49.37-40.06-86-89.68-109-149.27a351.26,351.26,0,0,1-22.21-92.89A364.12,364.12,0,0,1,300,688.39a357.59,357.59,0,0,1,200-273.6,347,347,0,0,1,104.84-31.11c15.95-2.11,31.9-3.61,48-3.06v39.05c-3.15.25-4.13-2.53-5.74-4.29-2.66-2.94-4.86-6.29-7.56-9.21a6.26,6.26,0,0,0-6.91-1.91c-2.68.93-2.08,3.54-2.1,5.6-.07,13.55,0,27.1,0,40.65,0,2.84,0,5.51,4,5.62s4.94-2,4.88-5.43c-.13-7.59.18-15.18-.2-22.76-.08-1.57-.55-3.53,1.46-4.19,1.54-.51,2.86.61,3.67,1.8,3.56,5.2,9.35,8.95,10.35,15.82-1.55.35-1.83,1.48-1.83,2.85,0,10,0,20.08.07,30.12a7.33,7.33,0,0,0,1,2.44,1.81,1.81,0,0,1-1,1.29c-8,1.52-16.16.56-24.27,1.37a262,262,0,0,0-70.38,16.84,254.07,254.07,0,0,0-94.62,64.51c-35.44,38.34-57.29,83.51-66.09,135a242.24,242.24,0,0,0-3.4,42.63,264.23,264.23,0,0,0,9.45,67.45A253.73,253.73,0,0,0,439.9,884.2,259.11,259.11,0,0,0,519,958.84c27.19,16.54,56.54,27.3,87.74,33.13a302.09,302.09,0,0,0,39.81,4.21c2,.11,4-.17,5.82.92l.53.67q0,10.18,0,20.35c-1.53,2.15-4.06,2.15-6.23,2.91-6.93,2.43-10.78,7.8-10.84,15.18-.06,7.54,2.59,11.13,10.32,14,2.88,1.06,5.93,1.7,8.65,3.17,3.08,1.66,5.18,4.12,4.44,7.89s-3.75,4.94-7.3,5.09a19.08,19.08,0,0,1-8.43-1.66c-2.34-1-4.3-.5-5.38,2-1.14,2.64.43,4,2.53,5.14,3.84,2.1,8.45,1.8,12.23,4Q652.88,1084.92,652.89,1094Z"/><path class="cls-10" d="M652.84,477.26l1.09-.48c17.49.63,34.89,1.92,52.08,5.62,41,8.81,77.87,26.05,110.32,52.64,44.92,36.8,74.83,83.34,88.6,139.78,14,57.29,9.08,113.24-14.43,167.44-13,29.88-31.31,56-54.15,79.15-4-1.41-4.86-5.68-7.57-8.27-14.21-22.86-29.47-45-44.12-67.62-17.79-27.43-36-54.61-53.8-82-1.34-2.06-3.3-4-2.33-6.88,4.06-2.8,8.92-2.67,13.46-3.49,31.28-5.63,62.54-11.44,93.85-17,3-.53,6.06-.68,9.29-1.47-25.91-4.89-51.58-9.55-77.27-14.12-18.32-3.25-36.59-6.71-54.93-9.83-9-1.53-9.6-2.81-4.65-10.71,10.56-16.86,20.56-34.06,31.12-50.93.54-.87,1.43-1.66,1.05-3.15-12.05,6.74-23.55,14.22-35.34,21.23-6.36,3.79-12.55,7.88-19,11.6-5.8,3.38-7.5,2.57-8.81-4C670.72,641.45,665,607.92,659,574.45c-1.76-9.78-3.37-19.6-5.23-29.37-.42-2.2-1.65-4-2.16-6.12-1-19.07-.33-38.15-.35-57.22A6.36,6.36,0,0,1,652.84,477.26Z"/><path class="cls-10" d="M835.32,921.86c-16.71,17.81-36.32,31.83-57.6,43.55a257.23,257.23,0,0,1-122.18,32.15c-.89,0-1.79.14-2.69.21l.06-.43a4.94,4.94,0,0,1-1.61-3.9c0-17.87-.77-35.75.37-53.6,2.2-3.9,2.15-8.34,2.89-12.57,5.93-34.2,12.06-68.37,17.55-102.66.39-2.48.6-5.05,2.13-7.2,3-1.88,5.15.45,7.27,1.87,11.26,7.51,22.78,14.61,34,22.14,37.62,25.2,75.6,49.85,113.38,74.8C831.29,917.8,833.89,919.18,835.32,921.86Z"/><path class="cls-4" d="M835.32,921.86Q789,891.41,742.63,861q-33.46-21.93-67-43.76c-3.74-.57-6.45-3.08-9.4-5.08-4.64-3.15-9.42-6.07-14.18-9-10.62-6.72-20.71-14.25-31.49-20.74-2.09-1.25-4.56-2.32-5.22-5.13,3.76-7.23,9.79-12.27,16.27-16.89,4.86,1.87,8.65,5.71,13.8,7.19,8.32,2.39,16,1.12,23.36-3.06,2-1.15,3.92-2.57,6.21-3.23,3.58,0,5.24,2.91,7.34,5Q751.67,835.6,821,905c2.76,2.76,5.25,5.9,8.93,7.62l6.47,8.82Z"/><path class="cls-11" d="M654.69,441.37l-14-18.23c0,10.66-.26,20,.11,29.24.18,4.76-1.6,5.71-5.91,5.62-4-.1-6.16-.4-6-5.44.37-14.64.08-29.29.21-43.93,0-2.09-1.59-5.4,1.47-6.09,3.32-.75,7.16-1.41,10,2.12,4,5.07,8.22,10,12.34,15l13.29,17.79c0-11,.31-20.74-.12-30.44-.23-5.13,2.47-4.89,6-4.91s6.09-.22,6,4.9c-.37,14.79-.07,29.6-.22,44.4,0,2.09,1.58,5.42-1.4,6.13-3.51.83-7.51,1.39-10.4-2.33C662.28,450.51,658.44,446,654.69,441.37Z"/><path class="cls-12" d="M959.18,721.39c8.13,0,16.26.19,24.38-.09,3-.11,3.62.91,3.59,3.6-.12,9.4-.28,18.82,0,28.21.16,4.62-2.48,4.12-5.47,4.32-3.56.25-4.82-.94-4.59-4.56.29-4.69-.08-9.41.12-14.1.14-3.2-.81-4.8-4.23-4.43a25.66,25.66,0,0,1-4.88,0c-3-.23-4.29.86-4,4s-.16,6.16.1,9.22c.34,4.06-2,4.24-5.05,4.27s-4.94-.63-4.57-4.19c.16-1.61,0-3.25,0-4.88,0-8.32-2.81-10.37-11-8.43-2.36.55-2.11,2.1-2.13,3.66-.06,5.24-.28,10.5,0,15.73.25,4.2-2.4,3.64-4.89,3.59s-5.19.82-5.11-3.43c.18-9.77.15-19.54,0-29.31-.05-3.08,1.26-3.35,3.88-3.29C943.27,721.52,951.23,721.39,959.18,721.39Z"/><path class="cls-13" d="M652.88,1075.81a32.88,32.88,0,0,1-13.62-3c-2.89-1.37-5-2.84-2.83-6.58,1.79-3.16,3.44-5.75,7.43-3.09,2.69,1.8,5.67,2.14,8.8,2,2.79-.09,5-1,5.75-3.9.78-3.18-1-5.3-3.63-6.48s-5.79-2-8.68-3c-9.37-3.31-12.44-7.66-11.92-16.81.46-7.94,5.56-13.72,14-15.77,1.58-.38,3.18-.68,4.76-1a36.19,36.19,0,0,1,16.52,4.73c2.33,1.39,4.17,3,1.69,6-2,2.41-3,6.31-7.42,3.38-3.2-2.12-6.6-3.68-10.64-3.35-3.06.25-5.88.7-6.61,4.3s.58,6,4,7.3c2.7,1,5.44,1.88,8.17,2.82,8.58,2.93,12.63,8.08,12.35,15.7s-5.3,13.56-13.3,15.85C656.09,1075.26,654.47,1075.49,652.88,1075.81Z"/><path class="cls-14" d="M652.9,938.9q0,29.22,0,58.44a246.45,246.45,0,0,1-86-14.44q-73.8-26.07-121.14-88.54C416.65,856,399.71,813,394.53,765.16s2.06-93.75,22.58-137.26C449.77,558.64,503,512.32,575.55,488.64c25-8.15,50.83-12.38,77.29-11.38l0,63a3.51,3.51,0,0,1,.43,1.77c-2.17,15-5.42,29.78-7.84,44.72-3.45,21.35-7.93,42.53-11.31,63.91-.54,3.41-.36,7.34-3.8,9.71-2.64.61-4.44-1.13-6.37-2.39q-37.47-24.48-74.76-49.22c-23.33-15.54-47.08-30.43-70.29-46.14a6.08,6.08,0,0,0-2.83-1.42c2.22,7,7.24,12.37,11.13,18.31q30.91,47.24,61.89,94.43c7.28,11,14.62,22,21.77,33.12,1.27,2,3.63,3.95,1.36,6.75-6.9,3-14.37,3.5-21.6,4.77-27.6,4.85-55.12,10.16-82.75,14.82a40.54,40.54,0,0,1-7.65.88c3.74.37,8.11,1.34,12.51,2.18,29.84,5.69,59.82,10.55,89.66,16.26q15.71,3,31.51,5.49c7,1.1,8,3.23,4.25,9.33-10.82,17.55-21.34,35.28-32.76,53.81,8.61-4.79,16.1-9.44,23.63-14,10.36-6.28,20.64-12.71,31-18.92,6.5-3.89,8.21-2.82,9.41,4.68,4.23,26.45,8.78,52.84,13.36,79.23,3.65,21,7,42.13,10.85,63.13A4.85,4.85,0,0,1,652.9,938.9Z"/><path class="cls-13" d="M361.82,755.7c-11.61-3.65-21.63-7-31.77-9.9-3.82-1.11-5.89-2.81-6-7s2.23-6.12,5.87-7.21c8.47-2.53,16.91-5.17,25.38-7.71,1.51-.46,3.14-.55,4.61-2.39-10.11-2.72-19.94-5.34-29.75-8-5.15-1.4-8.26-8.6-5.85-13.28.83-1.61,2-1.08,3.23-.71l49.69,15.2c4.95,1.51,2.58,5.64,3.07,8.7.42,2.68-.6,4.23-3.49,5.07-11.16,3.24-22.25,6.77-34.85,10.65,11.77,3.62,22.12,7.1,32.65,9.89,4.53,1.21,5.87,3.22,5.91,7.79.05,4.75-1.69,6.45-6.11,7.7-15.1,4.27-30.07,9-45,13.76-3.78,1.19-5.51,1.23-5.34-3.67.32-9.16,0-9.14,8.71-11.35C341.92,760.88,351.08,758.48,361.82,755.7Z"/><path class="cls-15" d="M652.84,541.33l0-1.06c3.93,3.9,3.17,9.32,4.13,14,2.74,13.53,4.68,27.23,7.08,40.84q5.71,32.34,11.63,64.63c1.07,5.83,2.79,11.55,3.56,17.41.49,3.62,2,2.75,3.81,1.63,9.12-5.45,18.2-11,27.29-16.47,10-6.06,20-12.16,30-18.19.94-.56,1.85-2.37,3.14-.91,1.06,1.19-.26,2.26-.9,3.31-11.59,19.07-23.07,38.21-34.82,57.18-2.4,3.89-1.68,4.35,2.54,5.07,16.61,2.83,33,6.68,49.69,9.23,27.66,4.23,55,10.16,82.62,14.54,2.28.37,4.53,1,7.17,1.55-2.14,2.46-5,2.22-7.45,2.67-12.87,2.37-25.78,4.5-38.66,6.78q-29.91,5.29-59.79,10.72c-5,.93-10.23,1.32-15.09,3.2-3.23,0-3.87-2.9-5.08-4.84-9.41-15.08-19.82-29.51-29.14-44.66a28.93,28.93,0,0,0-4.29-5.51c-3.51-4-8.2-6.47-12.62-9.2-7.06-4.36-13.78-9.24-20.88-13.54-2.29-1.39-4.56-3-5-6.08a42.74,42.74,0,0,1-.67-9.17c0-28-.3-55.93.13-83.89C651.51,567.52,650.18,554.33,652.84,541.33Z"/><path class="cls-3" d="M690.9,701.65c5.93,5.47,9.11,12.89,13.6,19.37,8.32,12,16.23,24.3,24.32,36.48L769,819.16q30.45,46.71,60.89,93.43c-3.88.85-5.49-2.42-7.53-4.47q-68.85-68.74-137.57-137.6c-3-3-5.62-6.62-9.51-8.74-.38-2.22,1.06-3.71,2.15-5.34,7.51-11.28,7.32-23.33-.56-34.26-1-1.32-2.05-2.54-2.09-4.29A38.35,38.35,0,0,1,690.9,701.65Z"/><path class="cls-15" d="M652.9,938.9c0-1.07,0-2.13-.07-3.2-1.15-8.94-2.3-17.86-1.15-26.92.56-4.32-.59-8.63-.57-13,.07-27.31,0-54.62.08-81.93,0-3.91-.6-8,1.69-11.61,7.82,4.64,15.45,9.58,22.77,15-3.31,9.14-3.54,18.87-5.34,28.3-3.4,17.74-6.31,35.57-9.35,53.38q-3.08,18-5.89,36C654.8,936.61,654.66,938.13,652.9,938.9Z"/><path class="cls-10" d="M652.88,802.26c.94,2.86-.08,5.7-.07,8.55.08,29.26-.22,58.53.18,87.78.17,12.38-.64,24.74-.16,37.11-3.41-10.8-4.34-22.09-6.41-33.15-2.94-15.71-5.86-31.43-8.1-47.24-3.05-21.51-8.2-42.67-10.38-64.31-.49-5-2.6-4.15-5.65-2.28q-28.32,17.4-56.7,34.7a2.24,2.24,0,0,1-3,.07c3.69-6.24,7.31-12.55,11.12-18.75,8.29-13.49,16.68-26.92,25-40.38,2.19-3.55-.72-4.21-2.94-4.52-14.58-2-29-4.85-43.44-7.62-13-2.51-26.16-4.49-39.22-6.8q-27.28-4.84-54.52-9.86c-.45-.08-.84-.56-1.93-1.34,9.33-2.43,18.28-3.44,27.12-5q42.63-7.58,85.25-15.28c1.24-.22,2.44-.63,3.65-.95,2.28-.1,2.95,1.85,3.91,3.25,12.62,18.69,24.75,37.71,37.28,56.47a11.23,11.23,0,0,1,1.87,4.45l32.71,22C650,800.14,651.41,801.22,652.88,802.26Z"/><path class="cls-16" d="M615.77,777.15c-8.1-10.38-14.65-21.81-22-32.69-7.09-10.45-14-21-21-31.48-8.68-13.47-17.3-27-26.07-40.41q-31.08-47.54-62.28-95-5.33-8.1-10.66-16.21c-1-1.55-1.51-2.75,1.19-2.39,51.93,51,103,102.86,154.51,154.26,1.63,1.62,3.67,3.09,3.41,5.86-1.73,3.73-4.88,6.61-6.12,10.65-2.78,9.06-2.09,17.66,3.11,25.74,1,1.61,2.62,3.06,2,5.31Z"/><path class="cls-13" d="M631.75,760.81c-8.82-11.12-11-23-4.21-36a59.73,59.73,0,0,1,4.63-6.55c2-4.87,6.6-6.47,10.88-8.32,9.86-4.28,27.64-.6,32.07,7.58,9.09,10.56,12,22.16,6.15,35.36-1.48,3.35-4.1,5.85-6,8.87C659.71,773.44,645.67,773.13,631.75,760.81Z"/><path class="cls-17" d="M675.12,717.55c-5.63-3.85-11.35-7.34-18.44-7.93-9.53-.79-17.51,2.46-24.51,8.67-1.31-1.48-2.55-3-3.95-4.42Q562.6,648.11,496.93,582.39c-6.22-6.23-12.45-12.43-18.64-18.7-1.36-1.37-3.2-2.46-3.4-4.7,10.38,5.47,19.71,12.56,29.5,19q62.42,40.8,124.71,81.8A78.72,78.72,0,0,1,652.79,675c11.05,7.34,22.13,14.62,33.09,22.07,1.83,1.25,4.43,1.86,5,4.56Z"/><path class="cls-10" d="M652.79,675,629.1,659.74c4.31-2.8,3.23-7.7,4-11.59,3.38-17.44,6-35,9.14-52.53,3.07-17.33,6.35-34.62,9.58-51.91a11.86,11.86,0,0,1,1-2.38c.43,9.49,1.07,19.1.68,28.45-1.41,33.19,0,66.35-.72,99.51C652.76,671.2,653.84,673.13,652.79,675Z"/><path class="cls-10" d="M656.09,740.26c0,5.77.13,11.56,0,17.33-.15,5.1-1.59,6-6.44,4.43-10.36-3.3-16.21-10.71-17.09-21.21-.72-8.65,4-15.46,10.7-20.7,2.49-1.93,5.68-2.27,8.66-2.67,3.54-.48,4.12,2.29,4.17,4.94C656.17,728.34,656.09,734.3,656.09,740.26Z"/></svg>