<svg id="Layer_1" data-name="Layer 1" xmlns="http://www.w3.org/2000/svg" viewBox="0 0 1276.55 1276.55"><defs><style>.cls-1{fill:#51ad9b;}.cls-2{fill:#353f4c;}.cls-3{fill:#252d38;}.cls-4{fill:#2d3440;}.cls-5{fill:#485666;}.cls-6{fill:#1c212c;}.cls-7{fill:#49515c;}.cls-8{fill:#30333b;}.cls-9{fill:#313645;}.cls-10{fill:#3d4956;}.cls-11{fill:#bee0e8;}</style></defs><circle class="cls-1" cx="638.28" cy="638.28" r="637.28"/><path class="cls-2" d="M337.23,556.1c43.25,5.88,86.83,5.1,130.3,6.54,39.15,1.3,78.41,4.44,117.45,2.75,34.78-1.5,67,9.49,100.44,13.79-8.35,9.53-17.2,5.8-22.49,3.57,6.39,3.23,3.57,14,6.31,22.73,1.5,15.27,6,30.14,6.06,45.57.08,18.4-6.61,34.12-19.14,47.45l-10.5,8.64c-89.83-1.58-179.5,4.14-269.24,5.66-8.4,3-16.4,7.89-25.93,5.79-11.07-12.27-1.19-19.73,6.73-26.93,29.83-27.11,35.71-60.53,26.55-98-2.24-9.15-4.78-18.31-15-22.19-16.39-5.9-33.38-1.94-50-3.35-9.55-.81-20.29,1.74-26.92-8.5C306.25,549,322,555.7,337.23,556.1Z"/><path class="cls-3" d="M881.59,592.76c80.46,4.77,161,8.77,241.32,14.84,20,1.51,34.69-5.72,48.92-16.76,6.59-5.11,12.79-10,21-5.25,7.37,4.24,5.45,12.3,5.5,19.11.17,23.49,0,47,.06,70.49,0,7.24-.27,14.65-8.48,17.51-6.64,2.32-12.77-.09-16.18-6.09-5.53-9.77-18-8.77-24.46-16.81a51.46,51.46,0,0,0-29-4.53c-63.4,8.26-125.66-.32-187.76-11.86-14.21-2.63-28.16-5.62-34.43,13.19-1.61,4.84-6.62,6.23-11.8,4.32-2.21-2.29-4-5.1-3.42-8.22A185.92,185.92,0,0,0,881.59,592.76Z"/><path class="cls-4" d="M881.59,592.76c20.55,24.57,8.9,50.92,4.26,76.88-15,9.92-32.4,10.31-49.23,10.66-69.16,1.47-127.9-21.33-172-76.52-10.88-4.4,6-19.67-8.81-22.7l29.66-1.9c57.52.58,115,1.4,172.55,1.52C868.57,580.73,875.53,585.21,881.59,592.76Z"/><path class="cls-5" d="M292.81,561.33c28.09,1.75,56.61-3.83,84.28,4.95-1.77,13.77-13.59,13.1-22.79,15.1-36.28,7.9-73,6.76-109.7,4-23.35-1.78-26.67.8-23,24.18,5.34,33.9-1,66.83-6.26,99.91-2.59,5.21-4.39,10.82-7.29,15.92l-14.36,9.3c-16.89-5.72-33.52,2.8-50.35.9-8.05-.9-17.56,2.39-22.16-8-.83-4.91,1.57-8.91,3.49-13.18,25.75-57.15,30.24-112.84-11.76-165.22,6.56-10.72,17.46-9.79,27.14-8.5,18.45,2.46,37,3.71,55.45,6l3.46,3.53c23.32,9.87,48.17,1,72,5.79C278.39,557.5,286.42,555.71,292.81,561.33Z"/><path class="cls-6" d="M664.57,603.78c20,3.93,29.34,22.36,43.88,33.49,43.81,33.54,93.52,38.41,145.18,35.49,10.55-.59,21.38-2.86,32.22-3.12,2.19-.73,6.28-1.38,6.31-2.21,1.44-33.37,25.5-25.36,42.57-20.37,48.73,14.25,99.26,10,148.56,17.54,21.79,3.32,44.25-9.19,66.15,1.25a2.34,2.34,0,0,1,.88,1.93c-.06.7-.71,1.35-1.1,2-85.7,4.94-172.88,1.78-256.67,17.14-79.42,14.56-157.81,5.75-236.39,11.56C672.31,668.12,668.72,636,664.57,603.78Z"/><path class="cls-7" d="M123,725.14c17.42,12,36.8,3.83,55.23,4.93,6,.36,12-2.89,15.51,4.58a429.24,429.24,0,0,1-65.38,4.81c-16.09.08-27.3-6.52-33.33-20.85C72.42,664.9,72.48,611,95,557.25c6-14.3,16.77-21,33.24-20.08,22.77,1.24,45.66.48,67.28,9.51-18.22.27-36.4,2.57-54.47-3.25-9.94-3.2-19.59.27-27.23,7.89-13.87,31.78-19,64.8-17.61,99.59C97.32,679,101.38,704.94,123,725.14Z"/><path class="cls-8" d="M372.8,712c6.91-7.64,16.08-4.55,24.28-4.62,39.8-.33,80.16,3.93,119.24-1.39,36.13-4.91,71.63-3.09,107.44-3.35,7.43-.06,15.82-2.84,21.9,4.48l-.12.07c-24.73,6.31-50.2-1-75,4.07l-120.36,1.51c-24.47,3.27-49,1-73.55,1.28Z"/><path class="cls-9" d="M208.07,725.35c-.65-2.89-5.35-5.71-.16-8.7a27.6,27.6,0,0,1,17-6.72c35.68-1.16,71.37-1.1,107.05,0,6.3.19,12.23,2.11,17,6.57L372.8,712h-.06c1.65,1.06,2.21,2.12,1.67,3.2s-1.07,1.62-1.62,1.62c-2.84,4.91-7.7,4.61-12.35,4.73Q284.26,723.48,208.07,725.35Z"/><path class="cls-10" d="M292.81,561.33c-25.25-1.5-50.51-3-75.75-4.52-6.63-.42-14.42,2.07-18.08-6.6,46,4.11,92.38-1.37,138.24,5.89C322.65,559.74,306.73,552,292.81,561.33Z"/><path class="cls-2" d="M570.54,711.28c24.62-8.36,50-2.15,75-4.07C620.9,715.17,595.59,710.75,570.54,711.28Z"/><path class="cls-10" d="M372.79,716.83c0-1.61,0-3.21-.05-4.81l77.44.77C424.62,718.62,398.57,715.19,372.79,716.83Z"/><path class="cls-10" d="M349,716.47l-141.09.18c4.16-36.72,14.2-72.8,5.66-110.58-6.49-28.74-.13-31.24,28.76-28.34,45.27,4.54,91.22,8.17,134.76-11.45,26.69,41.37,21.44,99-15.91,129.73C354,701.93,348.31,706.77,349,716.47Z"/><path class="cls-11" d="M123,725.14c-8.81.18-14.34-4.93-19.09-11.58-25-34.95-19.16-130.44,9.94-162.24,8.6-.57,14.43,3.25,19.42,10.3C159,598.05,153.27,692.52,123,725.14Z"/></svg>